<mxfile host="65bd71144e">
    <diagram id="WPPxuoLT-f2bpuTeXlMZ" name="Page-1">
        <mxGraphModel dx="975" dy="704" grid="1" gridSize="10" guides="1" tooltips="1" connect="1" arrows="1" fold="1" page="1" pageScale="1" pageWidth="850" pageHeight="1100" math="0" shadow="0">
            <root>
                <mxCell id="0"/>
                <mxCell id="1" parent="0"/>
                <mxCell id="2" value="user" style="shape=umlActor;verticalLabelPosition=bottom;verticalAlign=top;html=1;outlineConnect=0;" parent="1" vertex="1">
                    <mxGeometry x="60" y="190" width="30" height="60" as="geometry"/>
                </mxCell>
                <mxCell id="31" style="edgeStyle=none;html=1;exitX=0.5;exitY=0.5;exitDx=0;exitDy=0;exitPerimeter=0;" parent="1" source="3" target="2" edge="1">
                    <mxGeometry relative="1" as="geometry"/>
                </mxCell>
                <mxCell id="68" value="" style="edgeStyle=none;html=1;" parent="1" source="3" edge="1">
                    <mxGeometry relative="1" as="geometry">
                        <mxPoint x="75" y="530" as="targetPoint"/>
                    </mxGeometry>
                </mxCell>
                <mxCell id="3" value="actrur" style="shape=umlActor;verticalLabelPosition=bottom;verticalAlign=top;html=1;outlineConnect=0;" parent="1" vertex="1">
                    <mxGeometry x="60" y="390" width="30" height="60" as="geometry"/>
                </mxCell>
                <mxCell id="29" style="edgeStyle=none;html=1;" parent="1" source="4" target="3" edge="1">
                    <mxGeometry relative="1" as="geometry"/>
                </mxCell>
                <mxCell id="4" value="admin&lt;br&gt;&lt;br&gt;" style="shape=umlActor;verticalLabelPosition=bottom;verticalAlign=top;html=1;outlineConnect=0;" parent="1" vertex="1">
                    <mxGeometry x="60" y="590" width="30" height="60" as="geometry"/>
                </mxCell>
                <mxCell id="24" value="devblog" style="swimlane;whiteSpace=wrap;html=1;startSize=50;fillColor=#0050ef;fontColor=#ffffff;strokeColor=#001DBC;" parent="1" vertex="1">
                    <mxGeometry x="190" y="130" width="530" height="900" as="geometry"/>
                </mxCell>
                <mxCell id="25" value="login" style="ellipse;whiteSpace=wrap;html=1;fillColor=#0055FF;fontColor=#ffffff;strokeColor=#001DBC;" parent="24" vertex="1">
                    <mxGeometry x="380" y="330" width="150" height="40" as="geometry"/>
                </mxCell>
                <mxCell id="32" value="vew artickles" style="ellipse;whiteSpace=wrap;html=1;fontStyle=1;fillColor=#1ba1e2;fontColor=#ffffff;strokeColor=#006EAF;" parent="24" vertex="1">
                    <mxGeometry x="175" y="100" width="205" height="40" as="geometry"/>
                </mxCell>
                <mxCell id="37" value="mange tages" style="ellipse;whiteSpace=wrap;html=1;fillColor=#60a917;fontColor=#ffffff;strokeColor=#2D7600;" parent="24" vertex="1">
                    <mxGeometry x="170" y="540" width="210" height="40" as="geometry"/>
                </mxCell>
                <mxCell id="36" value="accept rufse artkcles" style="ellipse;whiteSpace=wrap;html=1;fillColor=#60a917;fontColor=#ffffff;strokeColor=#2D7600;" parent="24" vertex="1">
                    <mxGeometry x="170" y="460" width="210" height="40" as="geometry"/>
                </mxCell>
                <mxCell id="35" value="mange users" style="ellipse;whiteSpace=wrap;html=1;fillColor=#60a917;fontColor=#ffffff;strokeColor=#2D7600;" parent="24" vertex="1">
                    <mxGeometry x="170" y="380" width="210" height="40" as="geometry"/>
                </mxCell>
                <mxCell id="34" value="mange profile" style="ellipse;whiteSpace=wrap;html=1;fillColor=#66B2FF;fontColor=#ffffff;strokeColor=#006EAF;gradientColor=default;" parent="24" vertex="1">
                    <mxGeometry x="175" y="260" width="205" height="40" as="geometry"/>
                </mxCell>
                <mxCell id="33" value="mange artickles" style="ellipse;whiteSpace=wrap;html=1;fillColor=#66B2FF;fontColor=#ffffff;strokeColor=#001DBC;" parent="24" vertex="1">
                    <mxGeometry x="175" y="180" width="205" height="40" as="geometry"/>
                </mxCell>
                <mxCell id="39" value="vew statisteks" style="ellipse;whiteSpace=wrap;html=1;fillColor=#008a00;fontColor=#ffffff;strokeColor=#005700;" parent="24" vertex="1">
                    <mxGeometry x="170" y="740" width="210" height="40" as="geometry"/>
                </mxCell>
                <mxCell id="38" value="mange catigories" style="ellipse;whiteSpace=wrap;html=1;fillColor=#008a00;fontColor=#ffffff;strokeColor=#005700;" parent="24" vertex="1">
                    <mxGeometry x="170" y="670" width="210" height="40" as="geometry"/>
                </mxCell>
                <mxCell id="50" value="&amp;lt;incluses&amp;gt;" style="endArrow=none;dashed=1;html=1;dashPattern=1 3;strokeWidth=2;exitX=1;exitY=0.5;exitDx=0;exitDy=0;startArrow=open;startFill=0;" parent="24" source="33" target="25" edge="1">
                    <mxGeometry width="50" height="50" relative="1" as="geometry">
                        <mxPoint x="240" y="390" as="sourcePoint"/>
                        <mxPoint x="290" y="340" as="targetPoint"/>
                    </mxGeometry>
                </mxCell>
                <mxCell id="51" value="&amp;lt;includes&amp;gt;" style="endArrow=none;dashed=1;html=1;dashPattern=1 3;strokeWidth=2;exitX=0;exitY=0.5;exitDx=0;exitDy=0;entryX=0.5;entryY=1;entryDx=0;entryDy=0;" parent="24" source="25" target="34" edge="1">
                    <mxGeometry width="50" height="50" relative="1" as="geometry">
                        <mxPoint x="240" y="390" as="sourcePoint"/>
                        <mxPoint x="290" y="340" as="targetPoint"/>
                    </mxGeometry>
                </mxCell>
                <mxCell id="60" value="" style="endArrow=none;dashed=1;html=1;dashPattern=1 3;strokeWidth=2;exitX=1.003;exitY=0.348;exitDx=0;exitDy=0;exitPerimeter=0;entryX=0.5;entryY=1;entryDx=0;entryDy=0;entryPerimeter=0;" parent="24" source="39" target="25" edge="1">
                    <mxGeometry width="50" height="50" relative="1" as="geometry">
                        <mxPoint x="240" y="580" as="sourcePoint"/>
                        <mxPoint x="455" y="380" as="targetPoint"/>
                    </mxGeometry>
                </mxCell>
                <mxCell id="61" value="&amp;lt;includes&amp;gt;" style="endArrow=none;dashed=1;html=1;dashPattern=1 3;strokeWidth=2;entryX=0.446;entryY=1.112;entryDx=0;entryDy=0;entryPerimeter=0;exitX=1;exitY=0.5;exitDx=0;exitDy=0;" parent="24" source="38" target="25" edge="1">
                    <mxGeometry x="0.3382" y="-5" width="50" height="50" relative="1" as="geometry">
                        <mxPoint x="240" y="580" as="sourcePoint"/>
                        <mxPoint x="290" y="530" as="targetPoint"/>
                        <mxPoint as="offset"/>
                    </mxGeometry>
                </mxCell>
                <mxCell id="62" value="" style="endArrow=none;dashed=1;html=1;dashPattern=1 3;strokeWidth=2;entryX=0.457;entryY=1.112;entryDx=0;entryDy=0;entryPerimeter=0;exitX=1;exitY=0.5;exitDx=0;exitDy=0;" parent="24" source="37" target="25" edge="1">
                    <mxGeometry width="50" height="50" relative="1" as="geometry">
                        <mxPoint x="240" y="580" as="sourcePoint"/>
                        <mxPoint x="290" y="530" as="targetPoint"/>
                    </mxGeometry>
                </mxCell>
                <mxCell id="46" value="" style="endArrow=none;html=1;exitX=0;exitY=0.5;exitDx=0;exitDy=0;entryX=0.5;entryY=0.5;entryDx=0;entryDy=0;entryPerimeter=0;" parent="1" source="32" target="2" edge="1">
                    <mxGeometry width="50" height="50" relative="1" as="geometry">
                        <mxPoint x="420" y="340" as="sourcePoint"/>
                        <mxPoint x="470" y="290" as="targetPoint"/>
                    </mxGeometry>
                </mxCell>
                <mxCell id="47" value="" style="endArrow=none;html=1;entryX=0.5;entryY=0.5;entryDx=0;entryDy=0;entryPerimeter=0;exitX=0.015;exitY=0.69;exitDx=0;exitDy=0;exitPerimeter=0;" parent="1" source="33" target="3" edge="1">
                    <mxGeometry width="50" height="50" relative="1" as="geometry">
                        <mxPoint x="420" y="430" as="sourcePoint"/>
                        <mxPoint x="470" y="380" as="targetPoint"/>
                    </mxGeometry>
                </mxCell>
                <mxCell id="48" value="" style="endArrow=none;html=1;entryX=0.638;entryY=0.779;entryDx=0;entryDy=0;entryPerimeter=0;exitX=0;exitY=0.5;exitDx=0;exitDy=0;" parent="1" source="34" target="3" edge="1">
                    <mxGeometry width="50" height="50" relative="1" as="geometry">
                        <mxPoint x="420" y="430" as="sourcePoint"/>
                        <mxPoint x="470" y="380" as="targetPoint"/>
                    </mxGeometry>
                </mxCell>
                <mxCell id="55" value="" style="endArrow=none;html=1;entryX=0.5;entryY=0.5;entryDx=0;entryDy=0;entryPerimeter=0;exitX=0.027;exitY=0.719;exitDx=0;exitDy=0;exitPerimeter=0;" parent="1" source="35" target="4" edge="1">
                    <mxGeometry width="50" height="50" relative="1" as="geometry">
                        <mxPoint x="420" y="530" as="sourcePoint"/>
                        <mxPoint x="470" y="480" as="targetPoint"/>
                    </mxGeometry>
                </mxCell>
                <mxCell id="56" value="" style="endArrow=none;html=1;exitX=0;exitY=0.5;exitDx=0;exitDy=0;" parent="1" source="36" target="4" edge="1">
                    <mxGeometry width="50" height="50" relative="1" as="geometry">
                        <mxPoint x="420" y="530" as="sourcePoint"/>
                        <mxPoint x="470" y="480" as="targetPoint"/>
                    </mxGeometry>
                </mxCell>
                <mxCell id="57" value="" style="endArrow=none;html=1;exitX=0;exitY=0.5;exitDx=0;exitDy=0;" parent="1" source="37" target="4" edge="1">
                    <mxGeometry width="50" height="50" relative="1" as="geometry">
                        <mxPoint x="420" y="530" as="sourcePoint"/>
                        <mxPoint x="470" y="480" as="targetPoint"/>
                    </mxGeometry>
                </mxCell>
                <mxCell id="58" value="" style="endArrow=none;html=1;exitX=0;exitY=0.5;exitDx=0;exitDy=0;" parent="1" source="38" target="4" edge="1">
                    <mxGeometry width="50" height="50" relative="1" as="geometry">
                        <mxPoint x="420" y="810" as="sourcePoint"/>
                        <mxPoint x="470" y="760" as="targetPoint"/>
                    </mxGeometry>
                </mxCell>
                <mxCell id="59" value="" style="endArrow=classic;html=1;exitX=0;exitY=0.5;exitDx=0;exitDy=0;" parent="1" source="39" target="4" edge="1">
                    <mxGeometry width="50" height="50" relative="1" as="geometry">
                        <mxPoint x="420" y="810" as="sourcePoint"/>
                        <mxPoint x="470" y="760" as="targetPoint"/>
                    </mxGeometry>
                </mxCell>
                <mxCell id="63" value="" style="endArrow=none;dashed=1;html=1;dashPattern=1 3;strokeWidth=2;exitX=1;exitY=0.5;exitDx=0;exitDy=0;" parent="1" source="36" edge="1">
                    <mxGeometry width="50" height="50" relative="1" as="geometry">
                        <mxPoint x="420" y="720" as="sourcePoint"/>
                        <mxPoint x="630" y="520" as="targetPoint"/>
                    </mxGeometry>
                </mxCell>
                <mxCell id="64" value="" style="endArrow=none;dashed=1;html=1;dashPattern=1 3;strokeWidth=2;exitX=1;exitY=0.5;exitDx=0;exitDy=0;" parent="1" source="35" edge="1">
                    <mxGeometry width="50" height="50" relative="1" as="geometry">
                        <mxPoint x="420" y="720" as="sourcePoint"/>
                        <mxPoint x="630" y="520" as="targetPoint"/>
                    </mxGeometry>
                </mxCell>
            </root>
        </mxGraphModel>
    </diagram>
</mxfile>